<svg version="1.0" xmlns="http://www.w3.org/2000/svg"
 width="77.000000pt" height="104.000000pt" viewBox="0 0 77.000000 104.000000"
 preserveAspectRatio="xMidYMid meet">

<g transform="translate(0.000000,104.000000) scale(0.100000,-0.100000)"
fill="#fff" stroke="none">
<path d="M391 970 c-93 -25 -154 -59 -211 -120 -42 -44 -110 -162 -110 -192 0
-11 35 -12 187 -7 181 6 329 25 408 52 37 13 39 16 42 63 2 27 11 71 18 97 11
38 12 52 2 67 -14 24 -23 27 -110 46 -89 18 -136 17 -226 -6z"/>
<path d="M64 537 c15 -111 77 -187 172 -208 59 -13 103 -1 178 48 l39 25 -7
-38 c-13 -66 -47 -117 -96 -142 -39 -21 -54 -23 -120 -18 -41 3 -91 9 -111 12
-36 6 -36 5 -47 -39 -7 -24 -14 -51 -18 -60 -11 -29 29 -53 109 -67 122 -21
242 0 328 57 69 46 117 141 150 301 10 52 19 100 19 108 0 11 -23 14 -112 14
-113 0 -407 32 -462 50 l-28 9 6 -52z"/>
</g>
</svg>